<mxfile host="app.diagrams.net" modified="2022-05-25T14:17:48.223Z" agent="5.0 (Windows NT 10.0; Win64; x64) AppleWebKit/537.36 (KHTML, like Gecko) Chrome/100.0.4896.127 Safari/537.36" etag="hcXehvZZZUS3rLi-76xv" version="18.0.7" type="github">
  <diagram id="lBJD8JIJ5KwS0uGAYoSC" name="Page-1">
    <mxGraphModel dx="1995" dy="621" grid="1" gridSize="10" guides="1" tooltips="1" connect="1" arrows="1" fold="1" page="1" pageScale="1" pageWidth="827" pageHeight="1169" math="0" shadow="0">
      <root>
        <mxCell id="0" />
        <mxCell id="1" parent="0" />
        <mxCell id="45-GHCb6rRAG7xX4tLVs-56" style="edgeStyle=orthogonalEdgeStyle;rounded=0;orthogonalLoop=1;jettySize=auto;html=1;fontSize=12;entryX=0.5;entryY=0;entryDx=0;entryDy=0;" edge="1" parent="1" source="45-GHCb6rRAG7xX4tLVs-1" target="45-GHCb6rRAG7xX4tLVs-57">
          <mxGeometry relative="1" as="geometry">
            <mxPoint x="660" y="260" as="targetPoint" />
          </mxGeometry>
        </mxCell>
        <mxCell id="45-GHCb6rRAG7xX4tLVs-81" value="方式" style="edgeLabel;html=1;align=center;verticalAlign=middle;resizable=0;points=[];fontSize=17;" vertex="1" connectable="0" parent="45-GHCb6rRAG7xX4tLVs-56">
          <mxGeometry x="-0.2178" relative="1" as="geometry">
            <mxPoint as="offset" />
          </mxGeometry>
        </mxCell>
        <mxCell id="45-GHCb6rRAG7xX4tLVs-1" value="运动" style="rounded=1;whiteSpace=wrap;html=1;" vertex="1" parent="1">
          <mxGeometry x="330" y="100" width="120" height="60" as="geometry" />
        </mxCell>
        <mxCell id="45-GHCb6rRAG7xX4tLVs-2" value="运动的好处" style="endArrow=none;html=1;rounded=0;entryX=0;entryY=0.5;entryDx=0;entryDy=0;exitX=0.438;exitY=-0.037;exitDx=0;exitDy=0;exitPerimeter=0;" edge="1" parent="1" target="45-GHCb6rRAG7xX4tLVs-1">
          <mxGeometry width="50" height="50" relative="1" as="geometry">
            <mxPoint x="42.559999999999945" y="247.77999999999997" as="sourcePoint" />
            <mxPoint x="150" y="200" as="targetPoint" />
            <Array as="points">
              <mxPoint x="130" y="130" />
            </Array>
          </mxGeometry>
        </mxCell>
        <mxCell id="45-GHCb6rRAG7xX4tLVs-4" value="成年人" style="shape=table;startSize=30;container=1;collapsible=0;childLayout=tableLayout;fixedRows=1;rowLines=0;fontStyle=1;" vertex="1" parent="1">
          <mxGeometry x="-38" y="250" width="248" height="180" as="geometry" />
        </mxCell>
        <mxCell id="45-GHCb6rRAG7xX4tLVs-5" value="" style="shape=tableRow;horizontal=0;startSize=0;swimlaneHead=0;swimlaneBody=0;top=0;left=0;bottom=0;right=0;collapsible=0;dropTarget=0;fillColor=none;points=[[0,0.5],[1,0.5]];portConstraint=eastwest;" vertex="1" parent="45-GHCb6rRAG7xX4tLVs-4">
          <mxGeometry y="30" width="248" height="30" as="geometry" />
        </mxCell>
        <mxCell id="45-GHCb6rRAG7xX4tLVs-6" value="1" style="shape=partialRectangle;html=1;whiteSpace=wrap;connectable=0;fillColor=none;top=0;left=0;bottom=0;right=0;overflow=hidden;pointerEvents=1;" vertex="1" parent="45-GHCb6rRAG7xX4tLVs-5">
          <mxGeometry width="58" height="30" as="geometry">
            <mxRectangle width="58" height="30" as="alternateBounds" />
          </mxGeometry>
        </mxCell>
        <mxCell id="45-GHCb6rRAG7xX4tLVs-7" value="&lt;div style=&quot;text-align: justify;&quot;&gt;&lt;font size=&quot;1&quot; face=&quot;-apple-system, BlinkMacSystemFont, Helvetica Neue, PingFang SC, Hiragino Sans GB, Microsoft YaHei UI, Microsoft YaHei, Arial, sans-serif&quot; color=&quot;#4a4a4a&quot;&gt;&lt;span style=&quot;letter-spacing: 0.5px; background-color: rgb(255, 255, 255); font-size: 11px;&quot;&gt;全因和心血管病死亡率&lt;/span&gt;&lt;/font&gt;&lt;/div&gt;" style="shape=partialRectangle;html=1;whiteSpace=wrap;connectable=0;fillColor=none;top=0;left=0;bottom=0;right=0;align=left;spacingLeft=6;overflow=hidden;" vertex="1" parent="45-GHCb6rRAG7xX4tLVs-5">
          <mxGeometry x="58" width="190" height="30" as="geometry">
            <mxRectangle width="190" height="30" as="alternateBounds" />
          </mxGeometry>
        </mxCell>
        <mxCell id="45-GHCb6rRAG7xX4tLVs-8" value="" style="shape=tableRow;horizontal=0;startSize=0;swimlaneHead=0;swimlaneBody=0;top=0;left=0;bottom=0;right=0;collapsible=0;dropTarget=0;fillColor=none;points=[[0,0.5],[1,0.5]];portConstraint=eastwest;" vertex="1" parent="45-GHCb6rRAG7xX4tLVs-4">
          <mxGeometry y="60" width="248" height="30" as="geometry" />
        </mxCell>
        <mxCell id="45-GHCb6rRAG7xX4tLVs-9" value="2" style="shape=partialRectangle;html=1;whiteSpace=wrap;connectable=0;fillColor=none;top=0;left=0;bottom=0;right=0;overflow=hidden;" vertex="1" parent="45-GHCb6rRAG7xX4tLVs-8">
          <mxGeometry width="58" height="30" as="geometry">
            <mxRectangle width="58" height="30" as="alternateBounds" />
          </mxGeometry>
        </mxCell>
        <mxCell id="45-GHCb6rRAG7xX4tLVs-10" value="&lt;span style=&quot;color: rgb(74, 74, 74); font-family: -apple-system, BlinkMacSystemFont, &amp;quot;Helvetica Neue&amp;quot;, &amp;quot;PingFang SC&amp;quot;, &amp;quot;Hiragino Sans GB&amp;quot;, &amp;quot;Microsoft YaHei UI&amp;quot;, &amp;quot;Microsoft YaHei&amp;quot;, Arial, sans-serif; letter-spacing: 0.5px; text-align: justify; background-color: rgb(255, 255, 255);&quot;&gt;&lt;font style=&quot;font-size: 12px;&quot;&gt;高血压、癌症、2型糖尿病发病率&lt;/font&gt;&lt;/span&gt;" style="shape=partialRectangle;html=1;whiteSpace=wrap;connectable=0;fillColor=none;top=0;left=0;bottom=0;right=0;align=left;spacingLeft=6;overflow=hidden;" vertex="1" parent="45-GHCb6rRAG7xX4tLVs-8">
          <mxGeometry x="58" width="190" height="30" as="geometry">
            <mxRectangle width="190" height="30" as="alternateBounds" />
          </mxGeometry>
        </mxCell>
        <mxCell id="45-GHCb6rRAG7xX4tLVs-11" value="" style="shape=tableRow;horizontal=0;startSize=0;swimlaneHead=0;swimlaneBody=0;top=0;left=0;bottom=0;right=0;collapsible=0;dropTarget=0;fillColor=none;points=[[0,0.5],[1,0.5]];portConstraint=eastwest;" vertex="1" parent="45-GHCb6rRAG7xX4tLVs-4">
          <mxGeometry y="90" width="248" height="30" as="geometry" />
        </mxCell>
        <mxCell id="45-GHCb6rRAG7xX4tLVs-12" value="3" style="shape=partialRectangle;html=1;whiteSpace=wrap;connectable=0;fillColor=none;top=0;left=0;bottom=0;right=0;overflow=hidden;" vertex="1" parent="45-GHCb6rRAG7xX4tLVs-11">
          <mxGeometry width="58" height="30" as="geometry">
            <mxRectangle width="58" height="30" as="alternateBounds" />
          </mxGeometry>
        </mxCell>
        <mxCell id="45-GHCb6rRAG7xX4tLVs-13" value="&lt;span style=&quot;color: rgb(74, 74, 74); font-family: -apple-system, BlinkMacSystemFont, &amp;quot;Helvetica Neue&amp;quot;, &amp;quot;PingFang SC&amp;quot;, &amp;quot;Hiragino Sans GB&amp;quot;, &amp;quot;Microsoft YaHei UI&amp;quot;, &amp;quot;Microsoft YaHei&amp;quot;, Arial, sans-serif; letter-spacing: 0.5px; text-align: justify; background-color: rgb(255, 255, 255);&quot;&gt;&lt;font style=&quot;font-size: 12px;&quot;&gt;焦虑和抑郁症状&lt;/font&gt;&lt;/span&gt;" style="shape=partialRectangle;html=1;whiteSpace=wrap;connectable=0;fillColor=none;top=0;left=0;bottom=0;right=0;align=left;spacingLeft=6;overflow=hidden;" vertex="1" parent="45-GHCb6rRAG7xX4tLVs-11">
          <mxGeometry x="58" width="190" height="30" as="geometry">
            <mxRectangle width="190" height="30" as="alternateBounds" />
          </mxGeometry>
        </mxCell>
        <mxCell id="45-GHCb6rRAG7xX4tLVs-16" value="" style="shape=singleArrow;direction=south;whiteSpace=wrap;html=1;fontSize=11;fillColor=#33FF33;" vertex="1" parent="1">
          <mxGeometry x="150" y="290" width="10" height="20" as="geometry" />
        </mxCell>
        <mxCell id="45-GHCb6rRAG7xX4tLVs-18" value="" style="shape=singleArrow;direction=south;whiteSpace=wrap;html=1;fontSize=11;fillColor=#33FF33;" vertex="1" parent="1">
          <mxGeometry x="200" y="310" width="10" height="20" as="geometry" />
        </mxCell>
        <mxCell id="45-GHCb6rRAG7xX4tLVs-19" value="" style="shape=singleArrow;direction=south;whiteSpace=wrap;html=1;fontSize=11;fillColor=#33FF33;" vertex="1" parent="1">
          <mxGeometry x="120" y="350" width="10" height="20" as="geometry" />
        </mxCell>
        <mxCell id="45-GHCb6rRAG7xX4tLVs-21" value="4" style="shape=partialRectangle;html=1;whiteSpace=wrap;connectable=0;fillColor=none;top=0;left=0;bottom=0;right=0;overflow=hidden;" vertex="1" parent="1">
          <mxGeometry x="-38" y="370" width="58" height="30" as="geometry">
            <mxRectangle width="58" height="30" as="alternateBounds" />
          </mxGeometry>
        </mxCell>
        <mxCell id="45-GHCb6rRAG7xX4tLVs-22" value="&lt;span style=&quot;color: rgb(74, 74, 74); font-family: -apple-system, BlinkMacSystemFont, &amp;quot;Helvetica Neue&amp;quot;, &amp;quot;PingFang SC&amp;quot;, &amp;quot;Hiragino Sans GB&amp;quot;, &amp;quot;Microsoft YaHei UI&amp;quot;, &amp;quot;Microsoft YaHei&amp;quot;, Arial, sans-serif; letter-spacing: 0.5px; text-align: justify; background-color: rgb(255, 255, 255);&quot;&gt;&lt;font style=&quot;font-size: 12px;&quot;&gt;改善睡眠&lt;/font&gt;&lt;/span&gt;" style="shape=partialRectangle;html=1;whiteSpace=wrap;connectable=0;fillColor=none;top=0;left=0;bottom=0;right=0;align=left;spacingLeft=6;overflow=hidden;" vertex="1" parent="1">
          <mxGeometry x="20" y="370" width="190" height="30" as="geometry">
            <mxRectangle width="190" height="30" as="alternateBounds" />
          </mxGeometry>
        </mxCell>
        <mxCell id="45-GHCb6rRAG7xX4tLVs-23" value="5" style="shape=partialRectangle;html=1;whiteSpace=wrap;connectable=0;fillColor=none;top=0;left=0;bottom=0;right=0;overflow=hidden;" vertex="1" parent="1">
          <mxGeometry x="-38" y="400" width="58" height="30" as="geometry">
            <mxRectangle width="58" height="30" as="alternateBounds" />
          </mxGeometry>
        </mxCell>
        <mxCell id="45-GHCb6rRAG7xX4tLVs-24" value="&lt;span style=&quot;color: rgb(74, 74, 74); font-family: -apple-system, BlinkMacSystemFont, &amp;quot;Helvetica Neue&amp;quot;, &amp;quot;PingFang SC&amp;quot;, &amp;quot;Hiragino Sans GB&amp;quot;, &amp;quot;Microsoft YaHei UI&amp;quot;, &amp;quot;Microsoft YaHei&amp;quot;, Arial, sans-serif; letter-spacing: 0.5px; text-align: justify; background-color: rgb(255, 255, 255);&quot;&gt;&lt;font style=&quot;font-size: 12px;&quot;&gt;肥胖指数&lt;/font&gt;&lt;/span&gt;" style="shape=partialRectangle;html=1;whiteSpace=wrap;connectable=0;fillColor=none;top=0;left=0;bottom=0;right=0;align=left;spacingLeft=6;overflow=hidden;" vertex="1" parent="1">
          <mxGeometry x="20" y="400" width="190" height="30" as="geometry">
            <mxRectangle width="190" height="30" as="alternateBounds" />
          </mxGeometry>
        </mxCell>
        <mxCell id="45-GHCb6rRAG7xX4tLVs-25" value="" style="shape=singleArrow;direction=south;whiteSpace=wrap;html=1;fontSize=11;fillColor=#33FF33;" vertex="1" parent="1">
          <mxGeometry x="90" y="405" width="10" height="20" as="geometry" />
        </mxCell>
        <mxCell id="45-GHCb6rRAG7xX4tLVs-27" value="老年人" style="shape=table;startSize=30;container=1;collapsible=0;childLayout=tableLayout;fixedRows=1;rowLines=0;fontStyle=1;" vertex="1" parent="1">
          <mxGeometry x="230" y="250" width="248" height="180" as="geometry" />
        </mxCell>
        <mxCell id="45-GHCb6rRAG7xX4tLVs-28" value="" style="shape=tableRow;horizontal=0;startSize=0;swimlaneHead=0;swimlaneBody=0;top=0;left=0;bottom=0;right=0;collapsible=0;dropTarget=0;fillColor=none;points=[[0,0.5],[1,0.5]];portConstraint=eastwest;" vertex="1" parent="45-GHCb6rRAG7xX4tLVs-27">
          <mxGeometry y="30" width="248" height="30" as="geometry" />
        </mxCell>
        <mxCell id="45-GHCb6rRAG7xX4tLVs-29" value="1" style="shape=partialRectangle;html=1;whiteSpace=wrap;connectable=0;fillColor=none;top=0;left=0;bottom=0;right=0;overflow=hidden;pointerEvents=1;" vertex="1" parent="45-GHCb6rRAG7xX4tLVs-28">
          <mxGeometry width="58" height="30" as="geometry">
            <mxRectangle width="58" height="30" as="alternateBounds" />
          </mxGeometry>
        </mxCell>
        <mxCell id="45-GHCb6rRAG7xX4tLVs-30" value="&lt;div style=&quot;text-align: justify;&quot;&gt;&lt;span style=&quot;color: rgb(74, 74, 74); font-family: -apple-system, BlinkMacSystemFont, &amp;quot;Helvetica Neue&amp;quot;, &amp;quot;PingFang SC&amp;quot;, &amp;quot;Hiragino Sans GB&amp;quot;, &amp;quot;Microsoft YaHei UI&amp;quot;, &amp;quot;Microsoft YaHei&amp;quot;, Arial, sans-serif; letter-spacing: 0.5px; background-color: rgb(255, 255, 255);&quot;&gt;&lt;font style=&quot;font-size: 12px;&quot;&gt;预防老年人跌倒和跌倒相关伤害&lt;/font&gt;&lt;/span&gt;&lt;br&gt;&lt;/div&gt;" style="shape=partialRectangle;html=1;whiteSpace=wrap;connectable=0;fillColor=none;top=0;left=0;bottom=0;right=0;align=left;spacingLeft=6;overflow=hidden;" vertex="1" parent="45-GHCb6rRAG7xX4tLVs-28">
          <mxGeometry x="58" width="190" height="30" as="geometry">
            <mxRectangle width="190" height="30" as="alternateBounds" />
          </mxGeometry>
        </mxCell>
        <mxCell id="45-GHCb6rRAG7xX4tLVs-31" value="" style="shape=tableRow;horizontal=0;startSize=0;swimlaneHead=0;swimlaneBody=0;top=0;left=0;bottom=0;right=0;collapsible=0;dropTarget=0;fillColor=none;points=[[0,0.5],[1,0.5]];portConstraint=eastwest;" vertex="1" parent="45-GHCb6rRAG7xX4tLVs-27">
          <mxGeometry y="60" width="248" height="30" as="geometry" />
        </mxCell>
        <mxCell id="45-GHCb6rRAG7xX4tLVs-32" value="2" style="shape=partialRectangle;html=1;whiteSpace=wrap;connectable=0;fillColor=none;top=0;left=0;bottom=0;right=0;overflow=hidden;" vertex="1" parent="45-GHCb6rRAG7xX4tLVs-31">
          <mxGeometry width="58" height="30" as="geometry">
            <mxRectangle width="58" height="30" as="alternateBounds" />
          </mxGeometry>
        </mxCell>
        <mxCell id="45-GHCb6rRAG7xX4tLVs-33" value="&lt;span style=&quot;color: rgb(74, 74, 74); font-family: -apple-system, BlinkMacSystemFont, &amp;quot;Helvetica Neue&amp;quot;, &amp;quot;PingFang SC&amp;quot;, &amp;quot;Hiragino Sans GB&amp;quot;, &amp;quot;Microsoft YaHei UI&amp;quot;, &amp;quot;Microsoft YaHei&amp;quot;, Arial, sans-serif; letter-spacing: 0.5px; text-align: justify; background-color: rgb(255, 255, 255);&quot;&gt;&lt;font style=&quot;font-size: 12px;&quot;&gt;骨骼健康和功能性能力衰退&lt;/font&gt;&lt;/span&gt;" style="shape=partialRectangle;html=1;whiteSpace=wrap;connectable=0;fillColor=none;top=0;left=0;bottom=0;right=0;align=left;spacingLeft=6;overflow=hidden;" vertex="1" parent="45-GHCb6rRAG7xX4tLVs-31">
          <mxGeometry x="58" width="190" height="30" as="geometry">
            <mxRectangle width="190" height="30" as="alternateBounds" />
          </mxGeometry>
        </mxCell>
        <mxCell id="45-GHCb6rRAG7xX4tLVs-34" value="" style="shape=tableRow;horizontal=0;startSize=0;swimlaneHead=0;swimlaneBody=0;top=0;left=0;bottom=0;right=0;collapsible=0;dropTarget=0;fillColor=none;points=[[0,0.5],[1,0.5]];portConstraint=eastwest;" vertex="1" parent="45-GHCb6rRAG7xX4tLVs-27">
          <mxGeometry y="90" width="248" height="30" as="geometry" />
        </mxCell>
        <mxCell id="45-GHCb6rRAG7xX4tLVs-35" value="3" style="shape=partialRectangle;html=1;whiteSpace=wrap;connectable=0;fillColor=none;top=0;left=0;bottom=0;right=0;overflow=hidden;" vertex="1" parent="45-GHCb6rRAG7xX4tLVs-34">
          <mxGeometry width="58" height="30" as="geometry">
            <mxRectangle width="58" height="30" as="alternateBounds" />
          </mxGeometry>
        </mxCell>
        <mxCell id="45-GHCb6rRAG7xX4tLVs-36" value="成年人的五项好处" style="shape=partialRectangle;html=1;whiteSpace=wrap;connectable=0;fillColor=none;top=0;left=0;bottom=0;right=0;align=left;spacingLeft=6;overflow=hidden;" vertex="1" parent="45-GHCb6rRAG7xX4tLVs-34">
          <mxGeometry x="58" width="190" height="30" as="geometry">
            <mxRectangle width="190" height="30" as="alternateBounds" />
          </mxGeometry>
        </mxCell>
        <mxCell id="45-GHCb6rRAG7xX4tLVs-49" value="" style="endArrow=none;html=1;rounded=0;fontSize=12;exitX=0.5;exitY=0;exitDx=0;exitDy=0;" edge="1" parent="1" source="45-GHCb6rRAG7xX4tLVs-27">
          <mxGeometry width="50" height="50" relative="1" as="geometry">
            <mxPoint x="160" y="190" as="sourcePoint" />
            <mxPoint x="130" y="130" as="targetPoint" />
          </mxGeometry>
        </mxCell>
        <mxCell id="45-GHCb6rRAG7xX4tLVs-50" value="" style="shape=singleArrow;direction=south;whiteSpace=wrap;html=1;fontSize=11;fillColor=#33FF33;" vertex="1" parent="1">
          <mxGeometry x="450" y="320" width="10" height="20" as="geometry" />
        </mxCell>
        <mxCell id="45-GHCb6rRAG7xX4tLVs-51" value="" style="shape=singleArrow;direction=south;whiteSpace=wrap;html=1;fontSize=11;fillColor=#33FF33;" vertex="1" parent="1">
          <mxGeometry x="468" y="280" width="10" height="20" as="geometry" />
        </mxCell>
        <mxCell id="45-GHCb6rRAG7xX4tLVs-57" value="150~300分钟的中等强度有氧活动" style="rounded=0;whiteSpace=wrap;html=1;fontSize=12;fillColor=#FFFFFF;" vertex="1" parent="1">
          <mxGeometry x="642" y="260" width="120" height="60" as="geometry" />
        </mxCell>
        <mxCell id="45-GHCb6rRAG7xX4tLVs-64" value="" style="edgeStyle=orthogonalEdgeStyle;rounded=0;orthogonalLoop=1;jettySize=auto;html=1;fontSize=17;" edge="1" parent="1" source="45-GHCb6rRAG7xX4tLVs-58">
          <mxGeometry relative="1" as="geometry">
            <mxPoint x="702" y="390" as="targetPoint" />
          </mxGeometry>
        </mxCell>
        <mxCell id="45-GHCb6rRAG7xX4tLVs-58" value="&lt;font style=&quot;font-size: 17px;&quot;&gt;标准：可以说话，但是不能唱歌-心率提高，流汗&lt;/font&gt;" style="text;strokeColor=none;fillColor=none;html=1;fontSize=24;fontStyle=1;verticalAlign=middle;align=center;" vertex="1" parent="1">
          <mxGeometry x="652" y="300" width="100" height="40" as="geometry" />
        </mxCell>
        <mxCell id="45-GHCb6rRAG7xX4tLVs-59" value="" style="shape=image;html=1;verticalAlign=top;verticalLabelPosition=bottom;labelBackgroundColor=#ffffff;imageAspect=0;aspect=fixed;image=https://cdn0.iconfinder.com/data/icons/phosphor-regular-vol-3/256/person-simple-walk-128.png;fontSize=17;fillColor=#FFFFFF;" vertex="1" parent="1">
          <mxGeometry x="520" y="432.5" width="63" height="63" as="geometry" />
        </mxCell>
        <mxCell id="45-GHCb6rRAG7xX4tLVs-60" value="" style="shape=image;html=1;verticalAlign=top;verticalLabelPosition=bottom;labelBackgroundColor=#ffffff;imageAspect=0;aspect=fixed;image=https://cdn2.iconfinder.com/data/icons/new-year-s-hand-drawn-basic/64/dancer_3-128.png;fontSize=17;fillColor=#FFFFFF;" vertex="1" parent="1">
          <mxGeometry x="608" y="432.5" width="60.5" height="60.5" as="geometry" />
        </mxCell>
        <mxCell id="45-GHCb6rRAG7xX4tLVs-61" value="" style="shape=mxgraph.signs.transportation.bicycle_5;html=1;pointerEvents=1;fillColor=#000000;strokeColor=none;verticalLabelPosition=bottom;verticalAlign=top;align=center;fontSize=17;" vertex="1" parent="1">
          <mxGeometry x="708" y="437.5" width="70" height="53" as="geometry" />
        </mxCell>
        <mxCell id="45-GHCb6rRAG7xX4tLVs-62" value="" style="shape=mxgraph.signs.sports.hiking;html=1;pointerEvents=1;fillColor=#000000;strokeColor=none;verticalLabelPosition=bottom;verticalAlign=top;align=center;fontSize=17;" vertex="1" parent="1">
          <mxGeometry x="802" y="433" width="60" height="56.75" as="geometry" />
        </mxCell>
        <mxCell id="45-GHCb6rRAG7xX4tLVs-63" value="" style="shape=curlyBracket;whiteSpace=wrap;html=1;rounded=1;flipH=1;fontSize=17;fillColor=#FFFFFF;rotation=-90;" vertex="1" parent="1">
          <mxGeometry x="713.5" y="207.5" width="49.5" height="415" as="geometry" />
        </mxCell>
        <mxCell id="45-GHCb6rRAG7xX4tLVs-65" value="或者" style="text;strokeColor=none;fillColor=none;html=1;fontSize=24;fontStyle=1;verticalAlign=middle;align=center;" vertex="1" parent="1">
          <mxGeometry x="862" y="260" width="100" height="40" as="geometry" />
        </mxCell>
        <mxCell id="45-GHCb6rRAG7xX4tLVs-66" value="75-150分钟的剧烈强度有氧活动" style="rounded=0;whiteSpace=wrap;html=1;fontSize=12;fillColor=#FFFFFF;" vertex="1" parent="1">
          <mxGeometry x="1102" y="260" width="120" height="60" as="geometry" />
        </mxCell>
        <mxCell id="45-GHCb6rRAG7xX4tLVs-67" value="" style="edgeStyle=orthogonalEdgeStyle;rounded=0;orthogonalLoop=1;jettySize=auto;html=1;fontSize=17;" edge="1" parent="1" source="45-GHCb6rRAG7xX4tLVs-68">
          <mxGeometry relative="1" as="geometry">
            <mxPoint x="1162" y="390" as="targetPoint" />
          </mxGeometry>
        </mxCell>
        <mxCell id="45-GHCb6rRAG7xX4tLVs-68" value="&lt;font style=&quot;font-size: 17px;&quot;&gt;标准：停下来喘口气才能好好说话-呼吸急促，心跳加快&lt;/font&gt;" style="text;strokeColor=none;fillColor=none;html=1;fontSize=24;fontStyle=1;verticalAlign=middle;align=center;" vertex="1" parent="1">
          <mxGeometry x="1112" y="300" width="100" height="40" as="geometry" />
        </mxCell>
        <mxCell id="45-GHCb6rRAG7xX4tLVs-72" value="" style="shape=curlyBracket;whiteSpace=wrap;html=1;rounded=1;flipH=1;fontSize=17;fillColor=#FFFFFF;rotation=-90;" vertex="1" parent="1">
          <mxGeometry x="1136" y="245" width="49.5" height="340" as="geometry" />
        </mxCell>
        <mxCell id="45-GHCb6rRAG7xX4tLVs-73" value="" style="shape=image;html=1;verticalAlign=top;verticalLabelPosition=bottom;labelBackgroundColor=#ffffff;imageAspect=0;aspect=fixed;image=https://cdn2.iconfinder.com/data/icons/boxicons-regular-vol-3/24/bx-swim-128.png;fontSize=17;fillColor=#FFFFFF;" vertex="1" parent="1">
          <mxGeometry x="882" y="433" width="60" height="60" as="geometry" />
        </mxCell>
        <mxCell id="45-GHCb6rRAG7xX4tLVs-74" value="" style="shape=image;html=1;verticalAlign=top;verticalLabelPosition=bottom;labelBackgroundColor=#ffffff;imageAspect=0;aspect=fixed;image=https://cdn2.iconfinder.com/data/icons/boxicons-regular-vol-3/24/bx-run-128.png;fontSize=17;fillColor=#FFFFFF;" vertex="1" parent="1">
          <mxGeometry x="1002" y="433.5" width="62" height="62" as="geometry" />
        </mxCell>
        <mxCell id="45-GHCb6rRAG7xX4tLVs-75" value="" style="shape=image;html=1;verticalAlign=top;verticalLabelPosition=bottom;labelBackgroundColor=#ffffff;imageAspect=0;aspect=fixed;image=https://cdn1.iconfinder.com/data/icons/hawcons/32/700330-icon-1-basketball-128.png;fontSize=17;fillColor=#FFFFFF;" vertex="1" parent="1">
          <mxGeometry x="1086.38" y="436.56" width="49.62" height="49.62" as="geometry" />
        </mxCell>
        <mxCell id="45-GHCb6rRAG7xX4tLVs-77" value="" style="ellipse;whiteSpace=wrap;html=1;align=center;dashed=1;fontSize=17;fillColor=none;" vertex="1" parent="1">
          <mxGeometry x="480" y="160" width="910" height="440" as="geometry" />
        </mxCell>
        <mxCell id="45-GHCb6rRAG7xX4tLVs-78" value="" style="shape=image;html=1;verticalAlign=top;verticalLabelPosition=bottom;labelBackgroundColor=#ffffff;imageAspect=0;aspect=fixed;image=https://cdn3.iconfinder.com/data/icons/user-interface-169/32/plus-128.png;fontSize=17;fillColor=none;" vertex="1" parent="1">
          <mxGeometry x="1410" y="321" width="128" height="128" as="geometry" />
        </mxCell>
        <mxCell id="45-GHCb6rRAG7xX4tLVs-79" value="每周至少两次无氧运动，涉及所有主要肌群" style="text;strokeColor=none;fillColor=none;html=1;fontSize=24;fontStyle=1;verticalAlign=middle;align=center;" vertex="1" parent="1">
          <mxGeometry x="1700" y="365" width="100" height="40" as="geometry" />
        </mxCell>
      </root>
    </mxGraphModel>
  </diagram>
</mxfile>
